<svg xmlns="http://www.w3.org/2000/svg" version="1.1" xmlns:xlink="http://www.w3.org/1999/xlink" xmlns:svgjs="http://svgjs.dev/svgjs" width="1000" height="431" viewBox="0 0 1000 431"><g transform="matrix(1,0,0,1,-0.6060606060606233,-0.5361122901209683)"><svg viewBox="0 0 396 171" data-background-color="#89939e" preserveAspectRatio="xMidYMid meet" height="431" width="1000" xmlns="http://www.w3.org/2000/svg" xmlns:xlink="http://www.w3.org/1999/xlink"><defs></defs><g id="tight-bounds" transform="matrix(1,0,0,1,0.2400000000000091,0.2127054143830378)"><svg viewBox="0 0 395.52 170.5745911016014" height="170.5745911016014" width="395.52"><g><svg viewBox="0 0 395.52 170.5745911016014" height="170.5745911016014" width="395.52"><g><svg viewBox="0 0 395.52 170.5745911016014" height="170.5745911016014" width="395.52"><g><svg viewBox="0 0 395.52 170.5745911016014" height="170.5745911016014" width="395.52"><g transform="matrix(1,0,0,1,0,103.09843631941595)"><svg viewBox="0 0 395.52 67.47615478218546" height="67.47615478218546" width="395.52"><g><svg viewBox="0 0 395.52 67.47615478218546" height="67.47615478218546" width="395.52"><g><svg viewBox="0 0 395.52 67.47615478218546" height="67.47615478218546" width="395.52"><g transform="matrix(1,0,0,1,0,0)"><svg width="395.52" viewBox="4.949999809265137 -35.04999923706055 205.4300079345703 35.04999923706055" height="67.47615478218546" data-palette-color="#000000"><path d="M9.25-0.05L9.25-1.5 28.95-1.5 28.95-31.45 17.7-7.35 6.45-31.5 6.45 0 4.95-0.05 4.95-35.05 6.45-35.05 17.7-10.9 28.95-35 30.45-35.05 30.45 0 9.25-0.05ZM42.05-33.5L42.05-35 62.3-35 49.8-15 49.8 0 48.3 0 48.3-15 35.8-35 37.55-35 49.05-16.65 59.6-33.5 42.05-33.5ZM83.29 0L83.29-1.5 101.69-1.5 91.09-30.65 79.94 0 78.34 0 91.09-35.05 103.84 0 83.29 0ZM113.59 0L113.59-1.5 129.09-1.5 111.19-32.45 111.19 0 109.69 0 109.69-35 111.44-35 130.14-2.65 130.14-35 131.64-35 131.64 0 113.59 0ZM143.04-35L143.04 0 141.54 0 141.54-35 143.04-35ZM157.24-0.05L157.24-1.5 176.94-1.5 176.94-31.45 165.69-7.35 154.44-31.5 154.44 0 152.94-0.05 152.94-35.05 154.44-35.05 165.69-10.9 176.94-35 178.44-35.05 178.44 0 157.24-0.05ZM206.28-19.8L206.28-18.3 191.43-18.3 206.73-33.5 189.83-33.5 189.83-1.5 209.23-1.5 209.23 0 188.33 0 188.33-35 210.38-35 195.08-19.8 206.28-19.8Z" opacity="1" transform="matrix(1,0,0,1,0,0)" fill="#000000" class="undefined-text-0" data-fill-palette-color="primary" id="text-0"></path></svg></g></svg></g></svg></g></svg></g><g transform="matrix(1,0,0,1,135.90741250108402,0)"><svg viewBox="0 0 123.7051749978319 93.25204590898032" height="93.25204590898032" width="123.7051749978319"><g><svg xmlns="http://www.w3.org/2000/svg" xmlns:xlink="http://www.w3.org/1999/xlink" version="1.1" x="0" y="0" viewBox="0.4148826003074646 10.953989028930664 99.1702651977539 74.75701904296875" enable-background="new 0 0 100 100" xml:space="preserve" height="93.25204590898032" width="123.7051749978319" class="icon-icon-0" data-fill-palette-color="accent" id="icon-0"><path fill="#000000" d="M55.169 40.57H44.884c-0.293 0-0.293-0.438 0-0.438h10.285C55.46 40.132 55.46 40.569 55.169 40.57zM54.436 39.792c0.235 0 0.428-0.094 0.428-0.21v-0.721c0-0.118-0.191-0.214-0.424-0.214v-0.454h0.393c0.023 0 0.041-0.068 0.041-0.145 0-0.081-0.018-0.149-0.041-0.149h-0.721v1.044h0.235c0.14 0 0.185 0.028 0.185 0.092v0.415c0 0.024-0.041 0.047-0.096 0.047-0.05 0-0.089-0.022-0.089-0.047v-0.159c0-0.022-0.077-0.044-0.168-0.044-0.088 0-0.161 0.021-0.161 0.044v0.291C54.018 39.696 54.204 39.792 54.436 39.792zM52.943 39.582v-1.497c0-0.119 0.188-0.215 0.42-0.215 0.234 0 0.42 0.096 0.42 0.215v1.497c0 0.114-0.186 0.21-0.42 0.21C53.132 39.792 52.943 39.696 52.943 39.582zM53.271 39.45c0 0.025 0.041 0.047 0.094 0.047s0.092-0.023 0.092-0.047v-1.238c0-0.025-0.039-0.045-0.092-0.045s-0.094 0.02-0.094 0.045V39.45zM52.68 39.092c0.023 0 0.041-0.063 0.041-0.145 0-0.082-0.018-0.149-0.041-0.149h-0.564c-0.022 0-0.036 0.068-0.036 0.149 0 0.081 0.014 0.145 0.036 0.145H52.68zM51.438 39.792c0.231 0 0.42-0.096 0.42-0.21v-1.655c0-0.021-0.072-0.039-0.162-0.039s-0.166 0.018-0.166 0.039v1.523c0 0.024-0.041 0.047-0.092 0.047-0.054 0-0.097-0.022-0.097-0.047v-1.523c0-0.021-0.071-0.039-0.16-0.039-0.09 0-0.166 0.018-0.166 0.039v1.655C51.015 39.696 51.201 39.792 51.438 39.792zM51.472 53.631h-2.924c-0.293 0-0.293 0.438 0 0.438h2.924C51.765 54.068 51.765 53.631 51.472 53.631zM99.467 12.225L83.666 25.257l0.457 0.563c0.129 0.16 0.074 0.338-0.045 0.437L71.205 36.848c1.287 1.033 2.225 2.183 2.766 3.483l0.504 0.067c0.027 0.004 0.182 0.092 0.199 0.115 1.494 1.877 2.6 4.148 3.213 6.658v0.004c0.276 1.119 0.454 2.291 0.52 3.498v0.007c0.021 0.366 0.031 0.741 0.031 1.12 0 6.298-2.994 11.802-7.438 14.655-0.308 0.197-0.623 0.381-0.94 0.554l-0.914 4.689-0.707 3.625c-0.939 2.44-3.002 5.196-5.033 6.807-0.022 0.134-0.123 0.254-0.308 0.254h-2.424c-0.166 0-0.312-0.145-0.312-0.312v-5.911h-0.328l-2.174 4.498c-0.021 0.041-0.123 0.104-0.168 0.104h-3.498l-1.393 4.726c-0.031 0.103-0.193 0.222-0.299 0.222h-5.008c-0.104 0-0.27-0.119-0.297-0.222l-1.396-4.726h-3.494c-0.045 0-0.147-0.063-0.168-0.104l-2.174-4.498h-0.328v5.911c0 0.167-0.145 0.312-0.311 0.312h-2.424c-0.182 0-0.284-0.12-0.307-0.254-2.031-1.612-4.094-4.366-5.033-6.807l-0.705-3.625-0.914-4.689c-0.32-0.173-0.632-0.358-0.943-0.554-4.447-2.854-7.439-8.357-7.439-14.655 0-0.379 0.01-0.754 0.031-1.127 0.069-1.209 0.245-2.379 0.518-3.502h0.002c0.613-2.512 1.719-4.781 3.213-6.658 0.019-0.023 0.172-0.111 0.201-0.115l0.5-0.067c0.543-1.299 1.481-2.45 2.768-3.483L15.921 26.257c-0.119-0.099-0.174-0.278-0.043-0.437l0.457-0.563L0.532 12.225c-0.16-0.132-0.139-0.323-0.039-0.441L1.072 11.1c0.05-0.087 0.14-0.147 0.271-0.145l1.47 0.022c0.125 0.004 0.16 0.047 0.174 0.059l31.8 22.497h0.723v-3.415l1.045-1.261 0.508-0.201-2.141-2.446-0.049-0.074-2.299-5.038c-0.164-0.36 0.157-0.617 0.471-0.373l7.555 5.8c0.019 0.018 0.109 0.155 0.113 0.179l0.609 2.718 2.248-1.004 1.125-9.064c0.394-1.8 1.215-2.739 2.787-2.739h5.038c1.409 0 2.228 0.748 2.661 2.243 0.046 0.152 0.089 0.327 0.125 0.496l1.125 9.062 2.25 1.006 0.607-2.718c0.006-0.025 0.093-0.161 0.112-0.179l7.556-5.8c0.313-0.244 0.637 0.013 0.471 0.373l-2.299 5.038-0.049 0.074-2.142 2.446 0.508 0.201 1.045 1.261v3.415h0.724l31.799-22.498c0.015-0.012 0.052-0.055 0.177-0.059l1.469-0.022c0.13-0.001 0.22 0.058 0.271 0.145l0.578 0.685C99.607 11.902 99.628 12.093 99.467 12.225zM62.841 29.283l-0.144 6.028 1.64-1.156H63.87v-3.812l-0.8-0.968L62.841 29.283zM56.332 42.768l1.117 0.697c0.35 0.219 0.021 0.747-0.328 0.527-0.166-0.103-1.094-0.507-1.369-0.893l-0.594 2.034 2.525-0.952 40.119-32.593-0.512 0.01L62.678 36.084l-0.041 1.752c-0.01 0.416-0.631 0.399-0.619-0.016l0.217-9.196c0-0.022 0.061-0.18 0.078-0.196l2.269-2.594 1.764-3.859-6.478 4.974L56.332 42.768zM53.919 47.177l1.989-6.837-0.727-5.946c-0.359-1.633-1.008-2.223-2.176-2.223h-6.012c-1.168 0-1.817 0.59-2.178 2.223l-0.723 5.946 1.987 6.837 1.02 3.505 0.883 3.034 0.014 0.086c0 0.179-0.809 3.562-0.809 3.562l2.811 0.843 2.812-0.843c0 0-0.81-3.384-0.81-3.562l0.012-0.086 0.886-3.034L53.919 47.177zM52.626 53.838l0.01 0.061 1.824-2.476c-0.138-0.047-0.203-0.182-0.197-0.312h-0.844L52.626 53.838zM56.768 73.809l0.279-1.438 0.328 0.062L57.51 71.7l1.367-7.4-6.295-0.92c-0.034-0.004-0.127-0.073-0.143-0.104l-0.054-0.106-0.897-1.92h-2.976l-0.9 1.92-0.053 0.106c-0.012 0.031-0.108 0.101-0.143 0.104l-6.291 0.92 1.365 7.4 0.136 0.733 0.328-0.062 0.281 1.439-0.344 0.063 0.361 1.949h3.209l1.006-4.123 0.546-2.234c0.026-0.11 0.186-0.235 0.301-0.235h3.369c0.113 0 0.276 0.125 0.301 0.235l0.545 2.234 1.006 4.123h3.215l0.359-1.949L56.768 73.809zM36.885 53.143l-0.049-0.08 0.018-0.193-0.064-0.031-0.033 0.098 0.033 0.159L36.885 53.143zM36.773 53.436l-0.047 0.028 0.129 0.033L36.773 53.436zM36.79 52.773l-0.033-0.127-0.047 0.112L36.79 52.773zM36.886 52.438l-0.209 0.017v0.112l0.049 0.031 0.031-0.13L36.886 52.438zM36.372 53.191v0.097l0.111 0.098 0.08-0.063-0.111-0.051-0.016-0.177h-0.113L36.372 53.191zM37.239 50.718l0.16 0.019 0.08 0.029 0.014-0.084 0.002-0.027-0.031-0.014-0.116 0.041L37.239 50.718zM37.368 50.507l0.031-0.045-0.08-0.018-0.064 0.098L37.368 50.507zM37.915 50.157v0.078l0.078-0.03 0.033-0.048H37.915zM37.946 49.369l0.047-0.098-0.078 0.065L37.946 49.369zM38.222 50.582l-0.131 0.023 0.057 0.076 0.008 0.004 0.066 0.086-0.084-0.021 0.049 0.08 0.031 0.399v1.302 0.079l0.002 0.244 0.002 0.297-0.131 0.07 0.131-0.029 0.004 0.814 0.795 0.246-0.027-0.104v-2.277l0.061 0.113h0.129l-0.016-0.129-0.113-0.066-0.061-0.309 0.094-0.062-0.094-0.01-0.002-0.731v-0.37l0.078-0.043 0.082 0.098 0.08-0.083-0.016-0.096-0.225 0.048 0.209-0.128-0.082-0.063-0.08-0.048-0.045-0.153-0.002-0.666-0.768-0.036-0.006 0.486-0.062 0.112 0.012 0.165-0.045 0.092 0.061 0.352-0.027-0.064v0.114h0.035L38.222 50.582zM39.696 51.859l-0.111-0.209-0.016 0.113L39.696 51.859zM39.665 52.1l0.049 0.049v-0.146L39.665 52.1zM39.57 52.438v0.111l0.08-0.096L39.57 52.438zM39.552 53.996l-0.047 0.08-0.129-0.016 0.08 0.08 0.176-0.095L39.552 53.996zM39.391 52.501l0.016 0.097 0.016-0.097H39.391zM39.489 51.695l-0.033-0.028-0.049 0.097L39.489 51.695zM39.536 53.833l-0.031-0.161-0.082 0.018 0.033 0.129L39.536 53.833zM39.505 50.348l-0.049-0.032-0.129 0.065 0.162 0.048L39.505 50.348zM39.407 49.288l-0.047-0.096-0.064 0.207L39.407 49.288zM39.216 53.834L39.2 53.932h0.096l0.08-0.08L39.216 53.834zM39.103 53.545l0.031 0.146 0.082 0.031L39.103 53.545zM39.232 52.855l-0.08-0.082-0.098 0.031-0.031 0.051H39.232zM39.296 52.66l-0.033-0.129L39.07 52.5l0.018 0.081v0.146l0.064-0.115 0.08 0.115 0.064 0.016V52.66zM39.216 51.068l-0.162-0.077 0.098 0.159L39.216 51.068zM39.038 51.572l0.145-0.098v-0.052L39.038 51.572zM39.216 50.59l0.047-0.096-0.08-0.015-0.016 0.08L39.216 50.59zM39.278 49.642l-0.031-0.096-0.129-0.015 0.082 0.126L39.278 49.642zM37.947 53.32l-0.031-0.111V53.16l0.078-0.049-0.047-0.079-0.08-0.082-0.064 0.082 0.016-0.114h-0.098l-0.145 0.018 0.162 0.127-0.162 0.146 0.113 0.128-0.016-0.146 0.16-0.112-0.031 0.162L37.947 53.32zM37.818 53.463v0.051l0.08-0.033L37.818 53.463zM37.946 53.752l0.096 0.098v-0.16L37.946 53.752zM38.059 52.68l-0.113 0.047-0.08 0.047-0.082 0.019 0.018 0.065 0.127-0.051L38.059 52.68zM37.929 52.63l-0.078-0.019v0.084L37.929 52.63zM38.091 52.611l0.016 0.099 0.111-0.03-0.158-0.146-0.082-0.096-0.016-0.129 0.016-0.129-0.16 0.051 0.08 0.19L38.091 52.611zM37.818 52.02l-0.016 0.08h0.096l0.129 0.032 0.033-0.082-0.131-0.062v-0.082l0.064-0.096-0.064-0.113-0.047 0.113-0.098 0.032L37.818 52.02zM37.916 51.411l0.014-0.115-0.078-0.11-0.098 0.078h0.08l0.082 0.227-0.098 0.031-0.016 0.08 0.127-0.017 0.082 0.097-0.018-0.097 0.049-0.096L37.916 51.411zM38.186 51.875l-0.113-0.048 0.082 0.065L38.186 51.875zM38.172 52.21l-0.016 0.081h0.031L38.172 52.21zM38.059 50.831l-0.033 0.03 0.16 0.146-0.031-0.146L38.059 50.831zM37.833 50.816l0.018 0.192 0.078-0.034-0.014 0.161 0.078-0.032 0.018-0.209L37.833 50.816zM37.898 50.282l-0.064 0.098-0.096 0.017 0.08 0.047 0.08-0.047V50.282zM37.883 49.562l-0.049-0.082-0.096-0.029 0.064 0.127v0.064L37.883 49.562zM37.803 49.242l-0.051-0.12L37.65 49.12 37.803 49.242zM37.415 51.552l-0.08-0.096v0.081L37.415 51.552zM37.368 51.729l0.096 0.017h0.129l0.031-0.05-0.16-0.028L37.368 51.729zM37.319 51.873l-0.016 0.098 0.096-0.033 0.016-0.063v-0.001H37.319zM37.255 52.164l0.033 0.111 0.127-0.029v-0.098l-0.047-0.099L37.255 52.164zM37.336 52.386l0.08 0.081 0.16 0.018-0.047-0.031-0.096-0.096L37.336 52.386zM37.609 52.246l0.129 0.029-0.018-0.144-0.08-0.159 0.066-0.099-0.098-0.047-0.113 0.048-0.062 0.195h0.096l-0.082 0.16 0.033 0.062L37.609 52.246zM37.624 49.595l0.016 0.032 0.066-0.081L37.624 49.595zM37.48 50.797l-0.016 0.096 0.096-0.031 0.065-0.064H37.48zM37.593 50.507l-0.018-0.126-0.016-0.243-0.113 0.033v0.064l0.049 0.098v0.096L37.593 50.507zM37.464 50.059l-0.031-0.129-0.018 0.096L37.464 50.059zM37.254 49.705l-0.033-0.078-0.078 0.062 0.096 0.062L37.254 49.705zM37.047 51.297l-0.016 0.098-0.096-0.018-0.08-0.062-0.033 0.08 0.113 0.062 0.191-0.018-0.016-0.078 0.162-0.018 0.047-0.096L37.047 51.297zM37.175 51.648l0.047 0.177 0.051-0.112L37.175 51.648zM37.046 51.682l0.049 0.098 0.031-0.016L37.046 51.682zM36.95 51.811l0.016-0.082-0.16 0.017 0.062 0.129 0.098 0.019L36.95 51.811zM36.21 49.466l-0.031-0.082-0.08-0.142 0.064-0.083-0.064 0.018-0.049 0.078L36.034 49.4 36.21 49.466zM36.147 49.657l-0.08-0.016 0.096 0.098L36.147 49.657zM36.034 48.87h0.193l-0.16-0.096L36.034 48.87zM36.13 48.534l-0.062-0.065-0.018 0.112L36.13 48.534zM36.13 48.983l-0.031 0.098 0.08-0.066L36.13 48.983zM36.275 49.112l0.098-0.049-0.049-0.08-0.129 0.129H36.275zM36.854 49.399l-0.129-0.031-0.129-0.126L36.5 49.255l-0.162-0.078-0.031 0.127h0.16l0.047 0.08-0.111 0.096 0.098 0.13 0.16-0.144 0.096-0.016L36.854 49.399zM36.772 49.513v0.082l0.049 0.078 0.047-0.096L36.772 49.513zM36.726 50.269l0.047 0.065 0.033-0.098L36.726 50.269zM36.581 49.996L36.532 49.9l-0.064 0.046L36.581 49.996zM36.532 50.975h0.031l0.018-0.08L36.532 50.975zM36.612 49.673l-0.209 0.113-0.08-0.062 0.145 0.143 0.064-0.116L36.612 49.673zM36.227 49.997l0.096 0.063 0.065-0.016L36.227 49.997zM36.274 50.253l0.098 0.03 0.096-0.03-0.16-0.048L36.274 50.253zM36.258 50.573l0.08 0.095 0.006 0.014 0.059 0.135 0.098-0.019 0.014-0.116v-0.014l-0.111-0.016-0.049-0.079H36.258zM36.484 51.551L36.453 51.6l0.062 0.096 0.131-0.077L36.484 51.551zM36.692 50.525l-0.016-0.081-0.064-0.016L36.692 50.525zM36.661 51.667l0.08-0.032h-0.08V51.667zM36.79 51.361l-0.098-0.018-0.031 0.051L36.79 51.361zM36.901 50.781l-0.111 0.017-0.033 0.115L36.901 50.781zM37.015 51.635l-0.018-0.083-0.062 0.033L37.015 51.635zM37.046 51.199l-0.129 0.031 0.113 0.018L37.046 51.199zM36.917 50.026l-0.063-0.081 0.031-0.113h-0.113l0.049 0.305L36.917 50.026zM36.901 49.09c-0.088-0.004-0.2-0.051-0.25-0.078 0.05 0.027 0.158 0.074 0.182 0.074L36.901 49.09zM36.637 49.006l-0.021-0.021 0.032 0.095 0.08 0.016-0.089-0.089C36.638 49.006 36.637 49.006 36.637 49.006zM35.92 49.337l0.098-0.144-0.209 0.078 0.016 0.082 0.08 0.031 0.064 0.083L35.92 49.337zM35.89 50.863v0.111l0.031-0.031L35.89 50.863zM35.857 51.585l-0.096 0.082 0.08-0.019L35.857 51.585zM35.745 52.163l0.016 0.097 0.096-0.16L35.745 52.163zM35.97 48.967l-0.08-0.08v0.145L35.97 48.967zM35.73 50.138l-0.018 0.131 0.049-0.131H35.73zM35.697 51.009l0.049 0.078 0.033-0.256H35.73L35.697 51.009zM35.712 53.062l0.082-0.127-0.082-0.018V53.062zM35.76 53.225l0.014 0.021 0.096 0.028 0.02-0.147L35.76 53.225zM35.922 52.275l-0.143 0.111 0.078 0.066L35.922 52.275zM35.969 50.22l0.016 0.128 0.016-0.21-0.081-0.046L35.969 50.22zM35.938 51.009l0.111 0.109 0.098-0.031 0.016-0.078-0.209-0.018L35.938 51.009zM36.13 52.18l0.08 0.019-0.047-0.082L36.13 52.1V52.18zM36.259 50.188l-0.145-0.128-0.064 0.098 0.098-0.02L36.259 50.188zM36.243 51.167l0.016 0.049 0.209-0.03-0.129-0.082L36.243 51.167zM36.582 53.16l0.064-0.081-0.098-0.063L36.582 53.16zM36.71 52.164l-0.064-0.127 0.111-0.034h0.098l-0.049-0.097-0.113-0.014-0.111 0.062L36.564 52.1l0.033 0.047-0.016 0.099L36.71 52.164zM36.966 52.083v-0.081h-0.098L36.966 52.083zM36.95 52.532l0.16-0.048v-0.079l-0.08 0.016L36.95 52.532zM37.046 53.464l0.064 0.131 0.016 0.062 0.049-0.112L37.046 53.464zM37.19 52.275l-0.047-0.159-0.08 0.032 0.031 0.082 0.016 0.078L37.19 52.275zM37.255 51.973h-0.111l0.031 0.098L37.255 51.973zM37.191 53.048l0.049-0.082-0.049-0.016V53.048zM37.274 52.661l0.127 0.034 0.146-0.163-0.1 0.017-0.078-0.031-0.178 0.031L37.274 52.661zM37.658 52.743l0.049-0.226 0.127-0.111-0.127 0.048-0.131-0.112 0.049 0.08v0.191l-0.049 0.066-0.143 0.03L37.4 52.855 37.658 52.743zM37.335 53.545l0.033 0.079 0.096-0.015L37.335 53.545zM37.52 54.436l0.031 1.101 4.67 3.287 3.898-0.825 0.025-0.87L37.52 54.436zM39.794 51.905l-0.018 0.065 0.129 0.049-0.033-0.082L39.794 51.905zM39.843 51.729l-0.033-0.094v0.094H39.843zM40.13 51.087l-0.08-0.063-0.031 0.112 0.062 0.08v-0.098L40.13 51.087zM40.067 53.32l0.014 0.097 0.082 0.019L40.067 53.32zM40.099 50.702l-0.002-0.021-0.016-0.123h-0.096l0.096 0.123L40.099 50.702zM39.923 51.505l0.111 0.065v-0.131L39.923 51.505zM39.89 53.418l-0.018-0.096-0.078 0.063 0.143 0.177L39.89 53.418zM40.308 53.562l0.096 0.032-0.049-0.079L40.308 53.562zM40.324 53.385l0.049-0.064-0.098-0.032L40.324 53.385zM40.404 53.032l-0.096-0.066 0.031 0.082L40.404 53.032zM40.308 52.371l0.016-0.064-0.096 0.017L40.308 52.371zM40.372 51.65l-0.064-0.099-0.098 0.033-0.047 0.082 0.112 0.047L40.372 51.65zM40.501 52.646l0.016-0.049-0.098 0.032L40.501 52.646zM40.969 51.281l0.016-0.258-0.082 0.096L40.887 51.2l0.062 0.114 0.082 0.029 0.062-0.048L40.969 51.281zM40.933 53.818l-0.031 0.228 0.113-0.244-0.082-0.049-0.08-0.047L40.933 53.818zM40.949 52.132l-0.096-0.017 0.115 0.145h0.096L40.949 52.132zM41.046 51.411l-0.078 0.012v0.033L41.046 51.411zM40.869 52.357l-0.016 0.096 0.096-0.146-0.143-0.062L40.869 52.357zM40.868 52.695l0.033 0.109 0.096 0.016L40.868 52.695zM40.853 51.826l-0.047-0.081-0.08 0.047L40.853 51.826zM40.806 51.505v-0.11l-0.033 0.11H40.806zM40.806 51.312l-0.018-0.113-0.08-0.049 0.049 0.13L40.806 51.312zM40.692 51.572l0.016 0.125 0.018-0.096L40.692 51.572zM40.726 52.934l0.096 0.082-0.049-0.113L40.726 52.934zM40.806 53.447l0.08-0.047-0.08 0.017V53.447zM41.063 53.53l-0.115 0.015 0.049 0.064L41.063 53.53zM41.079 53.079l-0.064-0.08-0.031 0.049L41.079 53.079zM40.932 50.798l-0.105-0.116-0.021-0.027 0.008 0.027 0.023 0.069L40.932 50.798zM40.852 50.171l-0.127-0.111-0.08 0.032v0.128l0.143-0.032L40.852 50.171zM40.548 50.848l0.113 0.03-0.015-0.08L40.548 50.848zM40.645 53.802h0.031l0.016-0.079L40.645 53.802zM40.532 51.038l0.016 0.098 0.098 0.063v-0.112L40.532 51.038zM40.532 52.453l0.016 0.079 0.064-0.064L40.532 52.453zM40.581 53.753l-0.048 0.081 0.064 0.018L40.581 53.753zM41.125 50.781l0.016 0.097 0.178-0.16L41.125 50.781zM41.239 50.398l0.004-0.031-0.082-0.059L41.239 50.398zM41.479 53.945l-0.049 0.101 0.08-0.035-0.062-0.145-0.064 0.098L41.479 53.945zM41.4 53.271l0.08-0.062-0.096-0.064L41.4 53.271zM41.511 52.678l0.066-0.08-0.113-0.065 0.016 0.098L41.511 52.678zM41.479 51.971l-0.08-0.08 0.049 0.096L41.479 51.971zM41.334 52.341l0.096 0.046 0.018-0.207L41.334 52.341zM41.384 51.874l-0.033-0.097-0.016 0.097H41.384zM41.351 51.009l-0.031-0.096-0.047 0.174L41.351 51.009zM41.272 53.125l-0.033 0.229 0.08-0.065L41.272 53.125zM41.16 51.15v0.098l0.064-0.081L41.16 51.15zM46.724 56.658c0.139-0.581 0.326-1.357 0.463-1.951l-2.4-3.266h-1.922c-0.018 0-0.164-0.045-0.18-0.057l-0.998-0.703-0.066-0.05v0.05l0.002 0.662h-0.191v0.096l0.08 0.035 0.082-0.019 0.006 0.146h-0.088l0.033 0.112h0.033l0.023-0.083 0.023 0.549-0.016 0.08 0.016 0.161-0.004 1.231 0.004 0.182-0.002 0.357-0.094-0.006 0.094 0.043 0.002 0.473-0.002 0.367L46.724 56.658zM47.364 53.896l-0.785-2.785h-0.842c0.008 0.13-0.058 0.265-0.195 0.312L47.364 53.896zM47.727 22.56l0.408 1.188c0.047 0.138 0.195 0.25 0.332 0.25h3.064c0.139 0 0.287-0.112 0.336-0.25l0.408-1.188c0.045-0.137-0.027-0.25-0.166-0.25h-4.222C47.753 22.31 47.681 22.423 47.727 22.56zM48.135 21.523c0.047 0.137 0.195 0.247 0.332 0.247h3.064c0.139 0 0.287-0.11 0.336-0.247l0.408-1.188c0.045-0.138-0.027-0.25-0.166-0.25h-4.222c-0.135 0-0.207 0.112-0.161 0.25L48.135 21.523zM47.727 24.785l0.408 1.188c0.047 0.136 0.195 0.249 0.332 0.249h3.064c0.139 0 0.287-0.113 0.336-0.249l0.408-1.188c0.045-0.138-0.027-0.248-0.166-0.248h-4.222C47.753 24.537 47.681 24.647 47.727 24.785zM47.727 27.011l0.408 1.188c0.047 0.139 0.195 0.248 0.332 0.248h3.064c0.139 0 0.287-0.109 0.336-0.248l0.408-1.188c0.045-0.139-0.027-0.25-0.166-0.25h-4.222C47.753 26.761 47.681 26.872 47.727 27.011zM47.727 29.235l0.408 1.19c0.047 0.136 0.195 0.246 0.332 0.246h3.064c0.139 0 0.287-0.11 0.336-0.246l0.408-1.19c0.045-0.136-0.027-0.248-0.166-0.248h-4.222C47.753 28.987 47.681 29.1 47.727 29.235zM56.52 29.135l0.793 6.399 1.229-5.493L56.52 29.135zM43.089 37.325l0.084 0.375 0.385-3.159c0.322-1.479 0.91-2.407 2.074-2.667 0.283-0.163 0.611-0.266 0.988-0.309l0.006-5.812h-0.402v-1.521h0.406v-0.931c0.002-0.247 0.373-0.247 0.373 0l-0.01 8.249h0.303V19.595c0-0.135 0.109-0.248 0.248-0.248h4.938c0.139 0 0.248 0.113 0.248 0.248V31.55h0.274c0.537 0 0.987 0.107 1.362 0.324 1.162 0.26 1.748 1.188 2.074 2.667l0.385 3.167 0.085-0.377-2.218-17.873c-0.032-0.151-0.069-0.293-0.108-0.428-0.377-1.297-0.996-1.797-2.065-1.797h-5.038c-1.166 0-1.815 0.596-2.176 2.227L43.089 37.325zM41.46 30.042l1.227 5.487 0.791-6.392L41.46 30.042zM35.663 34.155l1.639 1.156-0.143-6.028-0.23 0.092-0.799 0.968v3.812H35.663zM2.198 11.589L42.319 44.18l2.52 0.951-0.592-2.033c-0.277 0.386-1.201 0.79-1.365 0.893-0.351 0.22-0.68-0.307-0.33-0.527l1.117-0.697-1.176-5.256c-0.021-0.04-0.033-0.091-0.033-0.146L40.132 26.95l-6.477-4.974 1.762 3.859 2.27 2.594c0.015 0.015 0.076 0.174 0.076 0.196l0.22 9.196c0.01 0.415-0.611 0.432-0.621 0.016l-0.043-1.752L2.708 11.599 2.198 11.589zM30.863 36.44c0.061 0.05 0.124 0.242 0.104 0.316l-0.99 3.966 7.447 7.422 2.725 0.106c0.016 0 0.154 0.047 0.168 0.057l3.094 2.188h2.99l-0.887-3.055-0.646-0.262-2.18-0.896L39.6 46.854l-0.557 0.323-1.08 0.622c-0.213 0.126-0.401-0.195-0.184-0.32l4.234-2.453 3.145 1.198-0.102-0.347-3.004-1.133-0.086-0.05-40.6-32.983-0.197 0.233L30.863 36.44zM29.806 53.604v-0.869h2.088v-0.689c-0.412 0.137-0.85 0.211-1.307 0.211-0.404 0-0.795-0.058-1.164-0.168v8.199c0 0.137 0.109 0.249 0.248 0.249h1.973c0.139 0 0.25-0.112 0.25-0.249v-0.26h-2.088V59.16h2.088v-0.418h-2.088v-0.867h2.088v-0.417h-2.088V56.59h2.088v-0.416h-2.088v-0.869h2.088v-0.414h-2.088v-0.869h2.088v-0.418H29.806zM32.586 50.678c0.916-0.635 1.516-1.692 1.516-2.891 0-0.209-0.018-0.41-0.053-0.609v-0.002c-0.07-0.41-0.215-0.797-0.418-1.146l-1.287-1.302c-0.416-0.222-0.861-0.373-1.332-0.426h-0.848c-0.088 0.007-0.174 0.022-0.26 0.04 1.32 0.132 2.394 1.091 2.697 2.354l-0.361 0.089c-0.287-1.197-1.365-2.088-2.65-2.088-1.424 0-2.592 1.087-2.717 2.479-0.008 0.082-0.012 0.164-0.012 0.249 0 1.507 1.221 2.726 2.729 2.726 0.287 0 0.558-0.044 0.816-0.127l0.113 0.354c-0.293 0.094-0.604 0.146-0.93 0.146-0.644 0-1.242-0.196-1.738-0.531 0.213 0.263 0.459 0.494 0.736 0.683v0.007c0.568 0.389 1.256 0.62 2 0.62C31.329 51.302 32.017 51.068 32.586 50.678zM28.368 44.303h-1.279v1.282C27.415 45.065 27.853 44.628 28.368 44.303zM30.213 37.211l0.105-0.418L16.814 25.656l-0.26 0.317L30.213 37.211zM26.761 40.233l2.791-0.377 0.494-1.976-0.76-0.627C28.261 38.056 27.321 39.043 26.761 40.233zM22.408 54.738h1.301v-3.678l0.088-0.379 2.09-9.234c0.012-0.055 0.101-0.139 0.16-0.143l2.85-0.35c0.016-0.126 0.051-0.267 0.088-0.396l-3.25 0.44c-1.371 1.751-2.398 3.855-2.984 6.181h-0.002c-0.283 1.121-0.465 2.293-0.535 3.502-0.021 0.373-0.031 0.743-0.031 1.12C22.183 52.805 22.261 53.788 22.408 54.738zM23.314 55.109h-0.84c0.192 1.078 0.475 2.117 0.84 3.101V55.109zM36.35 81.105c-0.779-3.616-1.256-6.86-1.547-9.407-0.377-3.289-0.443-5.416-0.451-5.689l-1.668-7.739-0.008-5.572c0-0.234 0.177-0.363 0.402-0.293l2.523 0.785 0.002-1.154v-0.206l0.08 0.094 0.016-0.081-0.096-0.104v-0.477V50.68l-0.002-1.18 0.002-0.084-0.002-0.55v-0.892L35.6 47.973l-0.801-0.797-0.145-0.146c0.007 0.05 0.015 0.096 0.023 0.146 0.029 0.201 0.045 0.402 0.045 0.611 0 1.127-0.449 2.145-1.178 2.891v0.002c-0.34 0.344-0.743 0.635-1.188 0.846v11.427l0.166 0.086c0.369 0.188 0.086 0.739-0.283 0.552l-4.1-2.1c-0.063-0.034-0.168-0.204-0.168-0.277v-8.181l-1.412-1.414c-0.024-0.022-0.092-0.188-0.092-0.22v-0.717-2.543c-0.01-0.117-0.014-0.231-0.014-0.349s0.004-0.233 0.014-0.348v-0.264-3.186c0-0.167 0.145-0.311 0.311-0.311h3.35c0.15-0.017 0.305-0.027 0.459-0.027 0.156 0 0.309 0.009 0.461 0.027h0.242l-2.324-2.316-2.744 0.293-2.047 9.022-0.092 0.402v0.488h0.322v1.518h-0.322v1.836c0 0.1-0.088 0.186-0.186 0.186h-0.209v4.022c1.258 2.877 3.233 5.248 5.641 6.798l0.32 0.2 0.127 0.074c0.193 0.112 0.389 0.223 0.588 0.325 0.725 0.386 1.461 0.693 2.213 0.932 0.394 0.124 0.209 0.717-0.186 0.591-0.594-0.186-1.178-0.416-1.746-0.685l0.842 4.333 0.664 3.424C33.001 77.243 34.667 79.595 36.35 81.105zM39.017 66.211l-0.627-1.686-2.281-5.951-0.02-0.108v-4.472l-2.795-0.869v5.047l1.668 7.738c0.004 0.033 0.055 2.248 0.461 5.787v0.004c0.312 2.705 0.834 6.188 1.703 10.062h1.891V66.211zM40.697 76.816l-1.012-2.117-0.018-0.083V71.7v-6.123l-2.477-6.525-0.021-0.604-0.459-0.118v0.077l2.26 5.898 0.648 1.741 0.02 0.106V71.7v4.092h0.445c0.045 0 0.148 0.063 0.168 0.104L40.697 76.816zM45.522 79.677l0.85-3.481h-3.275c-0.075 0-0.168-0.077-0.184-0.152L42.112 71.7l-1.389-7.522c-0.02-0.103 0.052-0.203 0.156-0.216l3.467-0.51-0.043-0.285 2.818-0.412 0.875-1.869-1.662-1.561c0 0-4.383 0.36-4.635 0.289-0.174-0.05-2.658-0.688-4.162-1.072l0.012 0.408 2.479 6.526 0.006 6.224 0.004 2.875 2.672 5.596h2.916l-0.1-0.332C45.525 79.829 45.521 79.688 45.522 79.677zM53.854 79.743L51.893 71.7l-0.453-1.853h-2.881L48.109 71.7l-1.961 8.043 1.58 5.35h4.545L53.854 79.743zM59.962 74.576l0.013-9.098 2.477-6.527 0.012-0.408c-1.504 0.384-3.988 1.021-4.162 1.072-0.254 0.072-4.633-0.289-4.633-0.289l-1.666 1.561 0.877 1.869 2.818 0.412-0.043 0.285 3.467 0.51c0.104 0.014 0.176 0.113 0.156 0.216l-1.39 7.522-0.803 4.343c-0.015 0.075-0.108 0.153-0.183 0.153h-3.276l0.851 3.48c0.002 0.01-0.002 0.151-0.005 0.161l-0.1 0.332h2.92L59.962 74.576zM53.883 57.999l3.898 0.825 4.67-3.287 0.031-1.1-8.623 2.69L53.883 57.999zM61.031 64.305l2.26-5.898v-0.077l-0.459 0.118-0.021 0.604-2.477 6.525V71.7v2.916l-0.018 0.083-1.011 2.117 0.443-0.92c0.022-0.041 0.121-0.104 0.168-0.104h0.444V71.7v-5.548l0.021-0.106L61.031 64.305zM64.576 71.695c0.408-3.54 0.457-5.754 0.461-5.786l1.668-7.738v-5.047l-2.795 0.869v4.472l-0.021 0.108-2.279 5.95-0.627 1.687v5.49 10.063h1.892C63.742 77.889 64.265 74.405 64.576 71.695zM76.314 55.107h-0.207c-0.1 0-0.188-0.086-0.188-0.186v-1.836H75.6v-1.518h0.32V51.08l-0.094-0.402-2.045-9.022-2.744-0.293-2.324 2.316h0.242c0.152-0.017 0.305-0.027 0.459-0.027 0.156 0 0.311 0.009 0.463 0.027h3.348c0.166 0 0.312 0.145 0.312 0.312v3.186 0.264c0.01 0.116 0.016 0.23 0.016 0.348s-0.006 0.233-0.016 0.349v2.544 0.717c0 0.031-0.067 0.198-0.093 0.22l-1.412 1.414v8.181c0 0.073-0.105 0.243-0.17 0.277l-4.098 2.1c-0.369 0.188-0.65-0.363-0.283-0.552l0.164-0.086V51.527c-0.443-0.211-0.844-0.502-1.186-0.846-0.729-0.749-1.176-1.767-1.176-2.894 0-0.209 0.014-0.41 0.043-0.609v-0.002c0.005-0.046 0.015-0.096 0.025-0.146l-0.146 0.146-1.828 1.82c-0.019 0.02-0.181 0.09-0.207 0.09l-2.754 0.107-2.103 1.486-0.998 0.704c-0.014 0.011-0.162 0.058-0.18 0.058h-1.92l-2.404 3.267c0.139 0.597 0.322 1.368 0.463 1.951l13.648-4.254c0.227-0.07 0.404 0.059 0.404 0.293l-0.006 5.571-1.67 7.74c-0.006 0.274-0.074 2.401-0.449 5.686V71.7c-0.293 2.545-0.768 5.789-1.549 9.407 1.677-1.513 3.345-3.864 4.195-5.983l0.663-3.424 0.843-4.333c-0.568 0.269-1.15 0.499-1.746 0.685-0.396 0.126-0.584-0.467-0.188-0.591 0.754-0.238 1.49-0.546 2.217-0.932 0.197-0.102 0.394-0.213 0.587-0.325l0.125-0.074 0.321-0.2c2.409-1.55 4.385-3.921 5.642-6.798h0.002V55.107zM67.4 46.698c0.299-1.262 1.379-2.221 2.694-2.354-0.084-0.018-0.17-0.033-0.258-0.04h-0.849c-0.471 0.053-0.916 0.204-1.332 0.426l-1.286 1.302c-0.203 0.348-0.347 0.736-0.419 1.148-0.034 0.201-0.053 0.402-0.053 0.609 0 1.2 0.603 2.256 1.517 2.891v0.002c0.565 0.389 1.256 0.621 1.996 0.621 0.745 0 1.434-0.232 2.002-0.627h0.005c0.275-0.192 0.521-0.422 0.73-0.683-0.494 0.335-1.092 0.53-1.734 0.53-0.328 0-0.639-0.05-0.932-0.145l0.114-0.354c0.255 0.083 0.527 0.127 0.816 0.127 1.506 0 2.727-1.219 2.727-2.726 0-0.085-0.004-0.167-0.012-0.249-0.127-1.392-1.295-2.479-2.715-2.479-1.287 0-2.365 0.891-2.65 2.088L67.4 46.698zM72.911 45.585v-1.282h-1.279C72.148 44.628 72.583 45.065 72.911 45.585zM70.193 59.162v0.867h-2.084v0.26c0 0.137 0.108 0.249 0.248 0.249h1.975c0.135 0 0.246-0.112 0.246-0.249V52.09c-0.369 0.11-0.76 0.168-1.166 0.168-0.453 0-0.893-0.074-1.303-0.211v0.689h2.084v0.869h-2.084v0.416h2.084v0.869h-2.084v0.416h2.084v0.868h-2.084v0.416h2.084v0.868h-2.084v0.417h2.084v0.867h-2.084v0.418 0.001H70.193zM77.529 55.109h-0.844v3.101C77.052 57.227 77.337 56.188 77.529 55.109zM71.013 40.558c0.037 0.128 0.072 0.269 0.089 0.396l2.852 0.35c0.055 0.004 0.146 0.088 0.16 0.143l2.09 9.234 0.086 0.379v3.678h1.301c0.148-0.95 0.227-1.934 0.227-2.937 0-0.379-0.01-0.75-0.03-1.12-0.07-1.209-0.253-2.384-0.535-3.502v-0.002c-0.588-2.325-1.617-4.428-2.983-6.179L71.013 40.558zM70.716 37.252l-0.76 0.627 0.493 1.976 2.789 0.377C72.679 39.043 71.738 38.056 70.716 37.252zM83.445 25.972l-0.26-0.317L69.684 36.792l0.104 0.418L83.445 25.972zM98.832 11.942l-0.195-0.233L58.035 44.692l-0.086 0.05-3.006 1.133-0.103 0.347 3.146-1.198 4.238 2.453c0.213 0.125 0.026 0.446-0.187 0.32l-1.078-0.622-0.558-0.323-3.092-0.572-2.178 0.896-0.648 0.264-0.887 3.053h2.992l3.094-2.188c0.014-0.01 0.154-0.057 0.168-0.057l2.725-0.106 7.447-7.422-0.99-3.966c-0.016-0.074 0.046-0.265 0.104-0.316L98.832 11.942zM49.895 39.582v-1.497c0-0.119 0.188-0.215 0.422-0.215 0.233 0 0.422 0.096 0.422 0.215v1.497c0 0.114-0.188 0.21-0.422 0.21C50.081 39.792 49.895 39.696 49.895 39.582zM50.222 39.45c0 0.025 0.043 0.047 0.095 0.047 0.051 0 0.094-0.023 0.094-0.047v-1.238c0-0.025-0.043-0.045-0.094-0.045-0.052 0-0.095 0.02-0.095 0.045V39.45zM49.288 39.792c0.229 0 0.418-0.096 0.418-0.21v-0.297c0-0.021-0.07-0.04-0.16-0.04s-0.164 0.02-0.164 0.04v0.163c0 0.021-0.043 0.045-0.094 0.045-0.054 0-0.095-0.022-0.095-0.045v-1.521c0-0.021-0.071-0.039-0.164-0.039-0.087 0-0.164 0.018-0.164 0.039v1.655C48.866 39.696 49.054 39.792 49.288 39.792zM64.538 65.896l-3.107-0.039c-0.25-0.002-0.252 0.371-0.004 0.373l3.106 0.039C64.781 66.273 64.786 65.9 64.538 65.896zM35.681 58.352h-1.85c-0.248 0-0.248 0.371 0 0.371h1.85C35.929 58.723 35.929 58.352 35.681 58.352zM32.314 47.485c-0.006 0.303-0.066 0.595-0.166 0.865l0.35 0.13c0.112-0.307 0.181-0.639 0.189-0.987L32.314 47.485zM67.503 48.48l0.351-0.13c-0.103-0.271-0.16-0.562-0.166-0.865l-0.373 0.008C67.32 47.841 67.39 48.173 67.503 48.48zM51.622 84.225h-3.246l-1.33-4.502 0.895-3.668c0.059-0.242-0.303-0.33-0.361-0.089l-0.906 3.718 0.002 0.097 1.383 4.684c0.018 0.06 0.117 0.132 0.18 0.132h3.523c0.062 0 0.16-0.072 0.178-0.132l1.387-4.684 0.003-0.097-0.908-3.718c-0.058-0.241-0.42-0.153-0.358 0.089l0.887 3.668L51.622 84.225zM29.587 49.739c-1.279 0-2.312-1.036-2.312-2.313 0-0.085 0.002-0.167 0.012-0.249 0.125-1.16 1.107-2.065 2.301-2.065s2.174 0.905 2.299 2.065h-0.375c-0.01-0.074-0.021-0.14-0.037-0.205l-0.105 0.143 0.035 0.062 0.123 0.209c-0.002-0.074-0.008-0.145-0.016-0.207l0.375-0.002c0.008 0.082 0.014 0.164 0.014 0.249C31.901 48.703 30.864 49.739 29.587 49.739zM31.507 47.712l-0.137 0.239 0.057 0.096C31.462 47.938 31.491 47.827 31.507 47.712zM31.251 47.182H31.05h-0.203l-0.201 0.35 0.201 0.35h0.203 0.199l0.203-0.35L31.251 47.182zM30.123 47.464h0.203 0.199l0.17-0.287 0.033-0.061-0.201-0.35h-0.201-0.203l-0.201 0.35 0.035 0.061L30.123 47.464zM29.802 47.185h-0.203-0.201l-0.201 0.35 0.201 0.35h0.201H29.8l0.205-0.35L29.802 47.185zM30.727 46.279l-0.201-0.351h-0.201-0.203l-0.201 0.351 0.201 0.349h0.203 0.199L30.727 46.279zM29.802 46.348h-0.203-0.201l-0.201 0.349 0.201 0.35h0.201H29.8l0.205-0.35L29.802 46.348zM29.28 46.281l-0.203-0.349h-0.203-0.201l-0.201 0.349 0.201 0.349h0.201 0.201L29.28 46.281zM28.673 46.768l-0.201 0.35 0.033 0.059 0.168 0.289h0.201 0.201l0.17-0.289 0.035-0.059-0.203-0.35h-0.203H28.673zM28.352 47.187h-0.201-0.203l-0.201 0.35 0.201 0.35h0.203 0.201l0.201-0.35L28.352 47.187zM28.472 47.955l0.201 0.347h0.201 0.201l0.205-0.347-0.203-0.35h-0.203-0.201L28.472 47.955zM29.197 48.372l0.201 0.349h0.201H29.8l0.205-0.349-0.203-0.351h-0.203-0.201L29.197 48.372zM30.123 48.3h0.203 0.199l0.202-0.349-0.201-0.348h-0.201-0.203l-0.201 0.348L30.123 48.3zM31.05 46.346h-0.203l-0.201 0.349 0.201 0.35h0.203 0.199l0.164-0.282c-0.053-0.149-0.125-0.288-0.211-0.417H31.05zM30.671 45.814l0.176 0.396h0.203 0.051C30.978 46.058 30.835 45.923 30.671 45.814zM29.967 45.521l0.156 0.272h0.203 0.199l0.031-0.052C30.374 45.636 30.175 45.562 29.967 45.521zM29.398 45.512l-0.201 0.351 0.201 0.348h0.201H29.8l0.205-0.348-0.203-0.351h-0.203H29.398zM28.638 45.731l0.236 0.062h0.201l0.164-0.277C29.025 45.554 28.821 45.628 28.638 45.731zM28.083 46.199l0.27 0.014 0.201-0.346-0.035-0.061C28.355 45.911 28.208 46.048 28.083 46.199zM27.771 46.742l0.178 0.308h0.203 0.201l0.201-0.349-0.201-0.352h-0.201-0.18C27.89 46.473 27.823 46.603 27.771 46.742zM27.664 47.177c-0.01 0.08-0.016 0.162-0.016 0.249l0.15-0.249 0.031-0.057-0.115-0.203c-0.024 0.086-0.039 0.172-0.051 0.256l-0.275 0.004H27.664zM27.759 48.077l0.07-0.12-0.168-0.292C27.681 47.808 27.712 47.945 27.759 48.077zM28.144 48.72h0.209l0.2-0.349-0.201-0.349h-0.201-0.203l-0.123 0.216C27.907 48.415 28.015 48.578 28.144 48.72zM28.387 48.949l-0.035-0.09h-0.07L28.387 48.949zM29.075 49.139l0.205-0.349-0.203-0.348h-0.203-0.201l-0.201 0.348 0.201 0.349h0.201H29.075zM30.005 49.208l-0.203-0.351h-0.203-0.201l-0.201 0.351 0.076 0.132c0.103 0.018 0.207 0.026 0.316 0.026 0.115 0 0.231-0.009 0.342-0.03L30.005 49.208zM30.727 48.79l-0.201-0.352h-0.201-0.203l-0.201 0.352 0.201 0.347h0.203 0.178L30.727 48.79zM31.034 48.717c0.135-0.15 0.244-0.32 0.328-0.506l-0.111-0.193H31.05h-0.203l-0.201 0.351 0.201 0.349v-0.001H31.034zM30.573 49.964l0.135 0.348c0.201-0.08 0.395-0.178 0.58-0.296l-0.197-0.313C30.923 49.807 30.751 49.896 30.573 49.964zM31.425 49.432l0.254 0.272c0.207-0.195 0.391-0.416 0.543-0.663l-0.318-0.193C31.771 49.064 31.609 49.261 31.425 49.432zM35.466 66.27l3.107-0.039c0.25-0.002 0.246-0.375-0.002-0.373l-3.109 0.039C35.214 65.9 35.218 66.273 35.466 66.27zM38.183 50.348l0.008 0.049h0.011L38.183 50.348zM68.097 47.426c0-0.085 0.007-0.167 0.017-0.249 0.123-1.16 1.104-2.065 2.299-2.065 1.193 0 2.174 0.905 2.299 2.065 0.008 0.082 0.014 0.164 0.014 0.249 0 1.277-1.035 2.313-2.312 2.313C69.134 49.739 68.1 48.703 68.097 47.426zM69.879 49.137l0.199-0.347-0.199-0.352h-0.203-0.203L69.27 48.79l0.229 0.347h0.178H69.879zM70.199 48.02l-0.201 0.351 0.203 0.349H70.4h0.203l0.202-0.348-0.202-0.351H70.4V48.02H70.199zM70.201 47.885H70.4h0.203l0.202-0.35-0.202-0.35H70.4h-0.201l-0.201 0.35L70.201 47.885zM70.925 48.302h0.199 0.2l0.203-0.347-0.203-0.35h-0.2-0.201l-0.201 0.35L70.925 48.302zM71.646 47.886h0.203 0.201l0.201-0.35-0.201-0.35H71.85h-0.203l-0.201 0.35L71.646 47.886zM71.527 47.118l-0.203-0.35h-0.2-0.201l-0.201 0.35 0.031 0.059 0.172 0.289h0.199 0.2l0.171-0.289L71.527 47.118zM71.324 46.63l0.203-0.349-0.203-0.349h-0.2-0.201l-0.201 0.349 0.203 0.349h0.199H71.324zM70.604 46.348H70.4h-0.201l-0.201 0.349 0.203 0.35H70.4h0.203l0.202-0.35L70.604 46.348zM70.079 46.279l-0.199-0.351h-0.203-0.202l-0.203 0.351 0.203 0.349h0.202 0.203L70.079 46.279zM69.475 46.766l-0.203 0.35 0.037 0.061 0.166 0.287h0.202 0.203l0.166-0.287 0.033-0.061-0.199-0.35h-0.203H69.475zM69.152 47.183h-0.201-0.204l-0.199 0.35 0.201 0.35h0.202 0.201l0.201-0.35L69.152 47.183zM69.271 47.951l0.203 0.349h0.202 0.203l0.199-0.348-0.199-0.348h-0.203-0.202L69.271 47.951zM70.806 49.208l-0.202-0.351H70.4h-0.201l-0.201 0.351 0.072 0.128c0.111 0.02 0.225 0.03 0.344 0.03 0.107 0 0.212-0.007 0.314-0.026L70.806 49.208zM71.527 48.79l-0.203-0.348h-0.2-0.201l-0.201 0.348 0.203 0.349h0.199 0.2L71.527 48.79zM72.177 48.238l-0.125-0.216h-0.2-0.203l-0.201 0.349 0.201 0.349h0.207C71.986 48.578 72.093 48.415 72.177 48.238zM72.339 47.665l-0.168 0.292 0.067 0.12C72.286 47.945 72.32 47.808 72.339 47.665zM72.287 46.917l-0.115 0.203 0.031 0.057 0.15 0.249c0-0.087-0.004-0.169-0.017-0.251C72.324 47.087 72.309 47.003 72.287 46.917zM71.85 46.348h-0.203L71.445 46.7l0.203 0.349h0.203 0.2l0.179-0.308c-0.054-0.138-0.121-0.268-0.201-0.393H71.85zM71.479 45.806l0.168 0.406 0.271-0.014C71.794 46.048 71.646 45.911 71.479 45.806zM70.761 45.516l0.164 0.277h0.199l0.237-0.062C71.179 45.628 70.977 45.554 70.761 45.516zM70.199 45.511l-0.201 0.351 0.203 0.348H70.4h0.203l0.202-0.347-0.202-0.351H70.4v-0.001H70.199zM69.445 45.741l0.231 0.052h0.203l0.153-0.272C69.824 45.562 69.624 45.636 69.445 45.741zM68.898 46.21h0.254l0.177-0.397C69.167 45.923 69.023 46.058 68.898 46.21zM68.587 46.764l0.162 0.282h0.202 0.201l0.201-0.35-0.201-0.349h-0.201H68.8C68.71 46.475 68.64 46.614 68.587 46.764zM68.471 47.386l0.123-0.209 0.035-0.062-0.105-0.143c-0.015 0.065-0.026 0.131-0.035 0.207h-0.002C68.48 47.243 68.477 47.312 68.471 47.386zM68.63 47.951l-0.138-0.239c0.017 0.115 0.046 0.227 0.08 0.335L68.63 47.951zM68.637 48.213c0.084 0.186 0.195 0.357 0.328 0.506h0.188l0.201-0.349-0.201-0.351h-0.201-0.204L68.637 48.213zM64.318 58.723h1.849c0.25 0 0.25-0.371 0-0.371h-1.849C64.07 58.352 64.07 58.723 64.318 58.723zM68.32 49.704l0.256-0.272c-0.184-0.171-0.348-0.368-0.479-0.584l-0.315 0.193C67.931 49.288 68.115 49.509 68.32 49.704zM68.71 50.016c0.188 0.118 0.381 0.216 0.582 0.296l0.137-0.348c-0.182-0.068-0.354-0.157-0.521-0.262L68.71 50.016zM38.179 50.05l0.008 0.01-0.02-0.156L38.179 50.05z" data-fill-palette-color="accent"></path></svg></g></svg></g><g></g></svg></g></svg></g></svg></g></svg><rect width="395.52" height="170.5745911016014" fill="none" stroke="none" visibility="hidden"></rect></g></svg></g></svg>